<?xml version="1.0" standalone="no"?>
<!DOCTYPE svg PUBLIC "-//W3C//DTD SVG 20010904//EN"
 "http://www.w3.org/TR/2001/REC-SVG-20010904/DTD/svg10.dtd">
<svg version="1.0" xmlns="http://www.w3.org/2000/svg"
 width="1500.000000pt" height="1500.000000pt" viewBox="0 0 1500.000000 1500.000000"
 preserveAspectRatio="xMidYMid meet">

<g transform="translate(0.000000,1500.000000) scale(0.100000,-0.100000)"
fill="#000000" stroke="none">
<path d="M0 7500 l0 -7500 7500 0 7500 0 0 7500 0 7500 -7500 0 -7500 0 0
-7500z m7207 5995 c46 -30 60 -86 74 -277 12 -174 13 -178 35 -178 23 0 40
-15 27 -23 -5 -3 -56 -8 -115 -12 -95 -6 -108 -5 -108 9 0 11 9 16 26 16 19 0
24 4 20 18 -2 9 -8 69 -11 132 -13 227 -28 280 -80 280 -34 0 -73 -37 -84 -78
-7 -25 -7 -88 2 -197 l12 -160 28 -3 c15 -2 27 -9 27 -17 0 -9 -29 -15 -111
-20 -60 -4 -113 -5 -116 -2 -10 10 8 27 28 27 17 0 20 5 15 28 -3 15 -10 110
-17 212 l-12 185 -26 0 c-53 0 -34 19 39 38 106 27 104 27 110 -13 5 -34 6
-34 20 -15 54 71 150 93 217 50z m892 4 c94 -21 140 -86 141 -196 l0 -63 -47
1 c-27 0 -86 4 -133 8 -97 10 -100 8 -100 -59 1 -142 71 -210 173 -166 18 7
41 23 51 35 19 21 46 28 46 12 0 -5 -18 -25 -39 -44 -67 -61 -150 -70 -248
-27 -126 55 -152 290 -47 427 39 52 65 66 154 82 3 0 25 -4 49 -10z m-1964
-150 c25 -7 57 -29 86 -58 122 -123 118 -338 -9 -426 -58 -40 -158 -48 -219
-16 -58 29 -100 85 -125 165 -46 153 12 293 139 333 49 15 79 15 128 2z m2923
-18 c58 -30 84 -66 80 -115 -2 -32 -9 -44 -30 -56 -25 -13 -31 -13 -55 0 -18
10 -29 25 -31 44 -4 31 21 66 47 66 25 1 -24 38 -64 49 -45 12 -83 3 -102 -25
-24 -38 -9 -66 78 -144 87 -79 119 -129 119 -185 0 -110 -101 -160 -247 -123
-57 14 -133 82 -133 119 1 67 44 108 94 89 50 -19 43 -110 -9 -110 -33 0 -32
-13 5 -43 59 -50 156 -42 171 13 9 35 -3 55 -92 146 -83 86 -94 109 -86 180 5
52 43 99 92 114 43 13 117 5 163 -19z m-3889 -62 c12 -22 12 -31 2 -58 -22
-52 -97 -56 -119 -6 -17 36 -15 52 9 76 29 29 88 23 108 -12z m5004 -112 c83
-41 167 -86 185 -102 91 -77 99 -204 18 -293 -68 -76 -191 -82 -337 -18 -10 4
-19 2 -22 -6 -3 -7 -26 -57 -51 -110 l-45 -97 29 -18 c26 -15 41 -43 24 -43
-4 0 -63 25 -130 57 -76 34 -124 62 -124 71 0 10 6 12 23 7 58 -18 52 -26 192
275 l132 285 -32 20 c-17 11 -30 26 -28 33 3 6 7 12 9 12 2 0 73 -33 157 -73z
m-4846 -285 c78 -199 82 -207 109 -207 56 -1 32 -22 -68 -62 -66 -26 -107 -38
-113 -32 -9 9 3 23 29 32 5 2 -26 92 -69 201 -64 162 -81 196 -94 190 -55 -22
-65 6 -11 31 23 10 58 31 78 46 24 18 40 24 47 18 5 -5 46 -103 92 -217z
m-744 -133 c59 -30 77 -105 32 -135 -32 -21 -69 -12 -91 22 -15 21 -15 28 -3
52 7 15 15 30 17 35 10 19 -69 5 -95 -17 -41 -35 -39 -107 4 -199 80 -168 158
-226 243 -182 34 17 51 45 59 94 8 48 31 53 31 6 0 -39 -27 -100 -57 -127 -57
-52 -182 -74 -242 -44 -42 22 -110 102 -138 162 -21 47 -25 67 -21 134 3 68 7
84 33 121 52 74 163 111 228 78z m6425 -269 c26 0 8 -37 -98 -193 -60 -89
-112 -174 -116 -189 -9 -39 27 -72 71 -65 56 9 83 35 176 170 l89 131 -23 15
c-13 9 -22 22 -20 29 4 9 21 4 61 -18 32 -17 70 -35 86 -40 17 -6 26 -15 23
-24 -3 -7 -60 -92 -126 -189 -67 -97 -124 -182 -127 -190 -3 -8 2 -20 11 -27
17 -14 20 -30 5 -30 -6 0 -38 19 -71 42 -59 42 -62 48 -45 89 6 13 -2 15 -53
11 -77 -6 -125 21 -153 84 -16 37 -17 50 -8 84 10 37 27 65 153 248 l51 74
-24 18 c-12 9 -20 22 -16 28 4 6 31 -3 73 -24 38 -19 74 -34 81 -34z m-7221
-283 c32 -21 58 -52 187 -215 51 -65 59 -71 78 -61 12 7 24 7 29 2 9 -9 -99
-103 -117 -103 -4 0 -18 10 -31 22 l-23 21 0 -37 c0 -76 -63 -146 -131 -146
-58 0 -94 23 -119 75 -36 75 -12 146 77 225 52 46 55 36 -31 128 -32 33 -47
42 -74 42 -40 0 -92 -48 -92 -84 0 -19 4 -22 30 -18 41 6 70 -21 70 -64 0 -64
-71 -85 -114 -33 -66 78 5 216 137 266 40 15 82 9 124 -20z m7988 -334 c41
-27 74 -52 74 -57 1 -6 -10 -21 -23 -35 l-25 -26 64 0 c53 0 68 -4 88 -23 43
-41 40 -96 -6 -127 -33 -21 -74 -10 -92 26 -17 32 -7 71 22 88 15 9 13 10 -16
11 -61 0 -116 -36 -226 -152 -101 -106 -105 -112 -88 -130 10 -12 13 -22 7
-28 -6 -6 -40 18 -92 67 -52 47 -80 79 -74 85 6 6 17 5 29 -2 17 -11 29 -2
114 86 201 210 200 208 178 222 -17 11 -27 42 -13 42 3 0 39 -21 79 -47z
m-8690 -287 c41 -17 105 -67 105 -81 0 -6 -41 -54 -90 -107 l-90 -96 42 -35
c95 -76 164 -88 213 -37 25 26 30 40 33 95 5 74 26 89 36 27 9 -62 -19 -135
-71 -183 -97 -91 -227 -76 -342 39 -62 62 -91 124 -91 191 0 141 132 238 255
187z m9360 -456 c-16 -17 -15 -18 17 -25 111 -23 152 -140 89 -251 -32 -55
-110 -121 -181 -153 -59 -27 -139 -27 -189 -1 -40 20 -101 85 -101 107 0 28
-22 20 -92 -33 -40 -31 -74 -58 -76 -60 -2 -1 2 -12 8 -24 7 -14 8 -26 3 -31
-10 -10 -143 151 -143 171 0 5 7 10 15 10 8 0 15 -4 15 -10 0 -28 51 6 285
187 237 184 253 199 238 215 -8 9 -13 24 -9 33 4 13 21 1 72 -50 63 -63 65
-67 49 -85z m-9971 -211 c50 -40 25 -119 -39 -119 -11 0 -31 7 -43 16 -26 18
-28 7 -9 -39 24 -55 64 -93 186 -176 117 -79 119 -80 137 -60 11 12 21 16 27
10 11 -11 -108 -186 -126 -186 -12 0 -13 9 -2 36 4 12 -35 44 -166 134 -170
116 -173 118 -187 97 -14 -21 -42 -31 -42 -14 0 4 11 26 24 49 13 23 29 57 36
77 13 39 24 43 54 21 30 -23 34 -18 23 29 -12 53 -4 90 28 122 30 29 64 31 99
3z m8541 -320 c40 -161 123 -223 355 -265 149 -27 155 -30 75 -38 -362 -38
-431 -100 -491 -440 -13 -75 -24 -108 -24 -73 0 53 -33 252 -50 302 -48 140
-146 199 -393 235 -49 8 -82 17 -75 20 7 4 61 13 120 19 121 13 214 41 273 80
59 39 109 145 135 286 32 170 32 170 46 51 7 -60 20 -139 29 -177z m1939 -191
c11 -17 35 -49 54 -70 30 -33 33 -41 21 -52 -8 -8 -81 -49 -163 -92 -148 -79
-216 -128 -216 -157 0 -8 9 -25 19 -38 16 -20 28 -24 73 -23 46 0 70 10 190
75 103 55 136 78 132 89 -14 34 -16 52 -7 49 12 -5 113 -137 113 -148 0 -4
-87 -54 -192 -111 -106 -56 -198 -107 -205 -112 -8 -7 -9 -17 -3 -34 7 -18 6
-24 -4 -24 -8 0 -31 30 -52 67 l-37 67 28 22 28 22 -40 11 c-56 15 -89 44
-108 96 -23 58 -14 103 28 143 17 17 95 65 172 107 77 43 142 79 144 81 2 2
-1 15 -7 28 -10 22 -7 36 8 36 3 0 14 -14 24 -32z m-11115 -223 c69 -35 47
-135 -29 -135 -37 0 -70 31 -70 65 0 33 -16 32 -49 -4 -101 -108 -29 -264 165
-360 97 -48 154 -63 236 -65 82 -1 110 11 151 65 42 58 39 154 -9 225 -17 25
-22 40 -15 47 14 14 32 -3 66 -65 53 -97 30 -217 -59 -316 -60 -66 -111 -85
-215 -80 -78 4 -98 9 -174 46 -100 48 -171 111 -214 193 -24 47 -28 65 -27
134 1 116 46 199 133 245 44 23 73 25 110 5z m4365 -191 c343 -57 706 -244
951 -489 116 -116 188 -217 250 -348 59 -124 76 -191 82 -322 6 -130 -6 -199
-49 -285 -199 -399 -855 -376 -1071 38 -42 81 -63 148 -72 236 -7 60 -6 66 11
66 11 0 46 13 79 29 73 34 143 108 167 177 26 73 41 199 34 287 -28 340 -279
543 -646 524 -221 -12 -375 -81 -533 -239 -234 -235 -377 -628 -444 -1228 -22
-197 -25 -904 -5 -1100 94 -904 364 -1379 848 -1496 98 -24 373 -24 514 0 203
35 412 120 574 234 142 100 309 272 426 440 44 62 44 62 92 62 l49 0 -28 -47
c-111 -193 -290 -388 -468 -509 -405 -276 -941 -369 -1490 -259 -681 137
-1259 580 -1554 1190 -136 280 -196 530 -208 860 -8 251 21 455 102 700 274
837 1060 1433 1970 1495 137 9 303 3 419 -16z m4221 -183 c27 -82 82 -119 205
-140 119 -21 122 -23 45 -36 -163 -29 -206 -52 -240 -128 -13 -28 -29 -89 -36
-135 -14 -90 -23 -90 -34 3 -9 80 -39 155 -73 187 -36 35 -90 55 -192 71 -92
15 -93 15 49 41 145 27 187 74 216 242 8 48 16 89 16 93 1 3 7 -29 15 -72 7
-43 20 -99 29 -126z m2896 -143 c12 -24 32 -57 45 -74 13 -17 24 -34 24 -38 0
-4 -18 -15 -39 -25 l-40 -17 42 -11 c87 -24 133 -120 78 -164 -70 -57 -164 30
-99 91 12 11 29 20 37 20 13 1 12 4 -3 15 -13 10 -42 15 -80 14 -49 0 -87 -10
-196 -53 -120 -48 -135 -56 -135 -77 0 -50 -21 -24 -59 72 -38 97 -42 136 -8
91 l17 -22 193 76 193 76 -7 34 c-9 48 11 44 37 -8z m-2147 -402 c18 -104 44
-164 86 -194 32 -24 112 -48 206 -60 65 -9 66 -9 -75 -35 -148 -28 -188 -73
-218 -241 -9 -53 -18 -95 -19 -93 -1 1 -9 44 -18 95 -18 103 -42 160 -82 191
-29 23 -105 48 -169 57 -92 12 -91 16 8 35 172 31 213 73 245 249 8 49 17 89
18 87 1 -1 9 -42 18 -91z m-9716 -208 c37 -101 45 -132 46 -184 0 -60 -20 -98
-37 -68 -25 45 -67 183 -67 222 0 44 14 82 30 82 5 0 17 -24 28 -52z m686 14
c8 -14 -32 -198 -52 -238 -25 -49 -59 -81 -72 -68 -12 12 14 171 36 223 15 36
61 91 75 91 4 0 10 -4 13 -8z m7926 -176 c249 -38 447 -141 641 -335 248 -248
399 -577 449 -981 15 -125 12 -382 -6 -511 -59 -428 -246 -798 -533 -1053
-207 -184 -448 -279 -706 -278 -258 1 -478 86 -690 269 l-85 73 0 -930 0 -930
-545 0 -545 0 0 2305 0 2305 545 0 545 0 0 -106 0 -107 33 27 c93 77 158 120
231 156 191 94 441 129 666 96z m-9221 -127 c99 -54 157 -102 181 -149 11 -22
20 -42 20 -45 0 -24 -164 56 -230 113 -65 55 -96 122 -58 122 6 0 45 -19 87
-41z m12751 12 c86 -62 119 -223 59 -287 -37 -40 -67 -52 -227 -90 -198 -47
-183 -41 -176 -70 5 -18 2 -24 -10 -24 -9 0 -18 12 -22 28 -3 15 -10 43 -15
62 -14 55 -11 67 22 80 l31 13 -29 12 c-62 26 -104 108 -89 171 10 37 59 80
98 88 91 17 171 -52 203 -174 13 -51 18 -52 113 -24 91 26 116 76 70 144 -30
44 -44 47 -51 12 -8 -38 -54 -60 -89 -41 -30 16 -38 28 -38 60 0 63 87 86 150
40z m-11732 -134 c198 -70 346 -221 418 -427 32 -92 43 -243 24 -328 -15 -71
-67 -183 -114 -244 l-36 -47 45 -180 c47 -188 51 -211 36 -211 -10 0 -43 84
-111 280 l-43 125 41 65 c58 93 94 206 94 299 1 248 -167 482 -397 554 -53 16
-95 21 -175 21 -169 0 -281 -43 -385 -148 -182 -182 -215 -488 -77 -702 84
-129 251 -231 424 -259 43 -7 48 -15 191 -278 60 -112 77 -151 68 -160 -16
-16 -23 -7 -153 187 l-114 170 -80 17 c-253 54 -436 210 -511 433 -24 72 -27
96 -27 216 0 116 3 144 23 200 42 118 82 182 166 265 137 138 272 187 495 181
104 -2 137 -7 198 -29z m114 -485 c61 -57 39 -150 -51 -216 -35 -26 -51 -45
-51 -60 0 -41 102 -381 169 -565 33 -91 38 -116 20 -105 -32 20 -269 564 -269
618 0 21 -13 20 -60 -4 l-40 -20 27 -43 c67 -105 233 -496 233 -548 0 -43 -26
-11 -80 97 -89 177 -165 318 -215 393 l-46 70 -42 -15 c-53 -19 -126 -21 -166
-5 -77 32 -92 133 -30 197 60 62 143 58 215 -11 l46 -43 64 30 64 30 0 64 c0
95 24 134 97 159 47 17 80 10 115 -23z m-1243 7 c46 -10 101 -43 101 -61 0 -6
-42 -8 -117 -6 -126 3 -194 24 -201 61 -3 15 6 17 85 17 48 0 108 -5 132 -11z
m13295 -570 c11 -113 7 -282 -9 -337 -34 -113 -122 -165 -239 -140 -96 20
-162 114 -173 250 -6 65 -8 69 -27 64 -12 -3 -67 -6 -123 -6 l-103 0 0 -40 c0
-29 -4 -40 -15 -40 -12 0 -15 14 -15 63 0 34 -3 99 -7 145 -5 70 -4 82 10 82
10 0 17 -13 22 -40 l7 -40 111 5 c62 3 205 8 320 11 l207 6 0 32 c0 32 6 46
20 46 4 0 10 -28 14 -61z m-11727 -466 c5 -12 -5 -27 -33 -51 -146 -127 -277
-202 -354 -202 -27 0 -51 4 -55 10 -5 8 118 109 229 188 34 24 159 71 189 72
10 0 21 -8 24 -17z m100 -199 c4 -13 -121 -118 -211 -175 -32 -21 -83 -47
-112 -59 -55 -20 -134 -27 -134 -12 0 17 157 146 251 206 71 45 196 69 206 40z
m11073 -333 c13 -9 35 -37 48 -62 20 -37 23 -55 20 -121 l-3 -76 35 -6 c77
-13 146 -7 165 14 23 25 25 104 3 126 -13 14 -17 12 -32 -10 -32 -50 -116 -21
-116 39 0 55 61 81 120 50 83 -43 96 -225 22 -306 -41 -44 -93 -50 -264 -28
-187 24 -198 24 -198 -1 0 -12 -7 -20 -16 -20 -14 0 -15 9 -9 63 9 87 13 97
39 97 35 0 37 10 9 47 -50 65 -28 178 40 209 39 17 102 11 137 -15z m-532
-808 l-3 -28 305 -92 c168 -51 308 -93 313 -93 4 0 12 11 17 25 10 26 30 34
30 13 0 -14 -22 -171 -25 -175 -1 -2 -16 1 -33 7 l-32 9 21 -30 c17 -25 21
-41 17 -85 -4 -45 -11 -61 -38 -89 -44 -45 -88 -59 -169 -52 -208 17 -340 158
-290 308 7 19 19 42 27 52 8 9 13 19 11 20 -2 2 -46 16 -98 32 -77 23 -95 25
-102 14 -5 -8 -9 -17 -9 -21 0 -5 -7 -8 -16 -8 -9 0 -14 6 -11 13 2 6 17 56
33 110 18 62 33 97 42 97 9 0 12 -9 10 -27z m53 -1033 c183 -62 265 -200 199
-335 -45 -93 -132 -125 -240 -88 -32 11 -56 26 -58 35 -2 9 22 66 52 127 31
61 56 112 56 115 0 14 -122 51 -168 51 -46 0 -57 -4 -77 -28 -40 -46 -42 -103
-9 -184 3 -7 -1 -13 -8 -13 -22 0 -48 65 -48 118 0 59 27 118 74 165 59 59
128 70 227 37z m-581 -730 c-6 -12 -10 -23 -8 -24 2 -1 120 -80 262 -176 255
-170 260 -173 274 -152 13 20 42 31 42 15 0 -3 -11 -25 -24 -47 -13 -23 -29
-58 -36 -79 -9 -28 -17 -38 -29 -34 -9 2 -140 86 -290 186 -252 169 -274 181
-290 167 -10 -9 -21 -16 -24 -16 -16 0 -3 26 54 111 40 61 64 88 71 81 7 -7 6
-17 -2 -32z m-347 -626 c65 -22 168 -119 197 -185 28 -67 25 -150 -9 -197 -54
-76 -137 -108 -214 -83 -41 14 -117 66 -117 81 0 6 38 52 85 104 47 52 85 97
85 101 0 25 -135 105 -177 105 -67 0 -121 -81 -108 -160 5 -32 4 -40 -8 -40
-8 0 -17 10 -21 23 -24 89 33 200 126 246 51 25 98 27 161 5z m-696 -582 c-16
-17 -10 -27 119 -181 126 -151 137 -161 153 -147 20 18 41 21 41 6 0 -8 -21
-34 -110 -133 -4 -5 -21 6 -38 24 -29 31 -30 31 -25 7 3 -13 0 -43 -6 -64 -22
-83 -100 -115 -148 -60 -30 35 -29 61 2 91 31 31 59 32 90 1 22 -22 25 -23 30
-6 7 23 -2 64 -26 111 -17 35 -184 241 -199 247 -5 2 -11 -2 -15 -7 -8 -14
-35 -14 -35 -2 0 18 165 150 174 141 6 -6 3 -17 -7 -28z m-669 -506 c-28 -20
-43 9 159 -309 43 -67 43 -67 67 -52 40 27 44 -3 5 -33 -19 -14 -49 -42 -68
-61 l-34 -35 -21 26 c-11 14 -70 105 -131 202 -68 109 -115 174 -122 171 -7
-3 -20 -8 -28 -11 -9 -4 -15 -1 -15 7 0 21 182 131 195 118 7 -7 5 -14 -7 -23z
m-588 -374 c37 -37 52 -90 38 -139 -12 -46 -91 -125 -142 -144 -20 -7 -36 -17
-36 -22 0 -21 75 -149 93 -159 30 -15 92 6 116 41 28 38 26 49 -4 43 -57 -11
-91 79 -43 112 53 37 111 -2 110 -74 -1 -63 -38 -111 -113 -149 -76 -38 -132
-41 -180 -8 -35 23 -95 129 -166 294 -31 70 -33 73 -57 63 -21 -8 -26 -6 -26
6 0 12 115 74 139 74 3 0 13 -12 22 -26 l16 -26 17 46 c24 62 73 96 139 96 40
0 54 -5 77 -28z m859 -159 c29 -118 32 -142 21 -162 -15 -29 -65 -29 -81 1
-11 20 -2 112 17 181 9 30 33 19 43 -20z"/>
<path d="M8043 13469 c-12 -4 -28 -21 -36 -36 -17 -33 -41 -132 -34 -139 2 -3
36 -8 74 -11 67 -5 70 -5 76 18 18 67 -4 162 -40 171 -10 3 -28 1 -40 -3z"/>
<path d="M6004 13312 c-39 -26 -44 -114 -14 -240 32 -133 81 -212 133 -212 10
0 30 12 44 26 25 25 25 29 20 117 -6 107 -41 230 -82 282 -20 27 -33 35 -58
35 -18 0 -37 -4 -43 -8z"/>
<path d="M10116 12953 c-38 -82 -70 -153 -73 -159 -7 -18 81 -47 120 -40 44 8
94 58 125 125 30 65 33 118 9 155 -20 30 -73 66 -98 66 -11 0 -38 -48 -83
-147z"/>
<path d="M3773 11965 c-36 -25 -47 -75 -27 -124 27 -69 84 -100 118 -65 32 31
16 104 -37 177 -24 31 -26 32 -54 12z"/>
<path d="M2912 11504 c-14 -9 -22 -26 -22 -43 0 -29 43 -104 79 -136 l22 -19
49 54 48 55 -31 33 c-29 31 -95 72 -114 72 -5 0 -19 -7 -31 -16z"/>
<path d="M12369 11037 c-64 -32 -269 -195 -269 -213 0 -28 22 -56 55 -70 28
-11 40 -11 78 0 100 30 277 187 277 246 0 20 -49 60 -73 60 -13 0 -43 -10 -68
-23z"/>
<path d="M9476 8719 c-102 -25 -228 -144 -306 -290 l-30 -57 0 -1041 0 -1042
29 -57 c70 -138 186 -255 285 -288 79 -26 170 -23 239 8 180 84 296 348 354
813 23 178 26 875 5 1050 -51 423 -135 680 -266 810 -33 34 -79 69 -101 79
-46 22 -152 30 -209 15z"/>
<path d="M13281 8623 c-43 -8 -71 -33 -71 -63 0 -52 69 -77 161 -59 56 11 58
13 52 38 -10 42 -32 69 -65 80 -32 11 -36 11 -77 4z"/>
<path d="M1882 8064 c-13 -9 -22 -26 -22 -41 0 -26 0 -26 21 -7 45 40 45 79 1
48z"/>
<path d="M1453 7864 c-9 -25 12 -37 51 -30 41 8 44 13 19 32 -24 18 -62 17
-70 -2z"/>
<path d="M13791 7423 l-153 -4 6 -47 c14 -95 71 -137 186 -136 122 0 170 40
170 144 0 48 -1 50 -27 48 -16 -1 -97 -4 -182 -5z"/>
<path d="M13338 6469 c-29 -16 -23 -63 12 -93 34 -28 98 -49 138 -44 22 2 27
9 30 33 1 17 -4 41 -11 55 -24 48 -123 76 -169 49z"/>
<path d="M13117 5532 c-23 -25 -22 -83 3 -115 52 -65 323 -144 376 -109 19 13
34 50 27 69 -17 50 -56 73 -198 118 -191 60 -188 59 -208 37z"/>
<path d="M13010 4516 c-17 -36 -30 -68 -30 -71 0 -3 24 -17 53 -30 87 -41 147
-28 147 32 0 28 -52 84 -109 116 l-32 18 -29 -65z"/>
<path d="M12076 3124 l-46 -56 43 -35 c23 -20 57 -42 75 -50 30 -12 37 -12 58
2 30 20 31 58 3 105 -23 38 -69 90 -80 90 -3 0 -27 -25 -53 -56z"/>
<path d="M9940 1853 c-18 -23 -21 -37 -17 -79 4 -42 25 -103 42 -122 2 -2 17
4 35 13 65 34 73 133 15 191 -31 31 -49 30 -75 -3z"/>
</g>
</svg>
